<?xml version="1.0" encoding="utf-8"?>

<svg version="1.1" id="Icons" xmlns="http://www.w3.org/2000/svg" xmlns:xlink="http://www.w3.org/1999/xlink" x="0px" y="0px"
	 viewBox="0 0 32 32" style="enable-background:new 0 0 32 32;" xml:space="preserve">
<path d="M29,14h-2.2c-0.2-1.3-0.6-2.5-1.3-3.7c-0.7-1.3-0.5-3,0.6-4.1c0.2-0.2,0.3-0.4,0.3-0.7S26.4,5,26.2,4.8c-2-2-5.2-2-7.3-0.1
	C17.7,4.2,16.3,4,15,4c-3.9,0-7.5,1.9-9.8,5c-1.5,2-2.2,4.5-2.2,7c0,2.2,0.6,4.3,1.7,6.1l0.1,0.2c-0.1,0.1-0.2,0.1-0.3,0.1
	C4.2,22.5,4,22.3,4,22c0-0.6-0.4-1-1-1s-1,0.4-1,1c0,1.4,1.1,2.5,2.5,2.5c0.5,0,1-0.2,1.4-0.4l3.3,5.4C9.3,29.8,9.6,30,10,30h4
	c0.3,0,0.6-0.1,0.8-0.4c0.2-0.2,0.3-0.5,0.2-0.8L14.8,28c0.4,0,0.9,0,1.3,0L16,28.8c0,0.3,0,0.6,0.2,0.8c0.2,0.2,0.5,0.4,0.8,0.4h4
	c0.3,0,0.7-0.2,0.8-0.5l2-3.1c2.4-0.9,4.5-2.2,5.9-3.7c0.2-0.2,0.3-0.4,0.3-0.7V15C30,14.4,29.6,14,29,14z M18.8,18.4
	c0.4,0.4,0.4,1,0,1.4c-0.2,0.2-0.5,0.3-0.7,0.3s-0.5-0.1-0.7-0.3L16,18.4l-1.4,1.4c-0.2,0.2-0.5,0.3-0.7,0.3s-0.5-0.1-0.7-0.3
	c-0.4-0.4-0.4-1,0-1.4l1.4-1.4l-1.4-1.4c-0.4-0.4-0.4-1,0-1.4c0.4-0.4,1-0.4,1.4,0l1.4,1.4l1.4-1.4c0.4-0.4,1-0.4,1.4,0
	c0.4,0.4,0.4,1,0,1.4L17.4,17L18.8,18.4z"/>
</svg>
